<svg xmlns="http://www.w3.org/2000/svg" version="1.1" xmlns:xlink="http://www.w3.org/1999/xlink" xmlns:svgjs="http://svgjs.dev/svgjs" width="1000" height="623" viewBox="0 0 1000 623"><g transform="matrix(1,0,0,1,-0.6060606060606233,0.2522267206477409)"><svg viewBox="0 0 396 247" data-background-color="#003366" preserveAspectRatio="xMidYMid meet" height="623" width="1000" xmlns="http://www.w3.org/2000/svg" xmlns:xlink="http://www.w3.org/1999/xlink"><g id="tight-bounds" transform="matrix(1,0,0,1,0.2400000000000091,-0.09999999999999432)"><svg viewBox="0 0 395.52 247.2" height="247.2" width="395.52"><g><svg></svg></g><g><svg viewBox="0 0 395.52 247.2" height="247.2" width="395.52"><g transform="matrix(1,0,0,1,39.55200000000002,57.09193391495121)"><svg viewBox="0 0 316.41599999999994 133.01613217009756" height="133.01613217009756" width="316.41599999999994"><g><svg viewBox="0 0 413.68206145728004 173.90519999999998" height="133.01613217009756" width="316.41599999999994"><g><rect width="15.60492577728" height="173.90519999999998" x="161.69134464" y="0" fill="#ffffff" opacity="1" stroke-width="0" stroke="transparent" fill-opacity="1" class="rect-o-0" data-fill-palette-color="primary" rx="1%" id="o-0" data-palette-color="#ffffff"></rect></g><g transform="matrix(1,0,0,1,218.14686145728,0.43259999999999366)"><svg viewBox="0 0 195.53520000000003 173.04" height="173.04" width="195.53520000000003"><g id="textblocktransform"><svg viewBox="0 0 195.53520000000003 173.04" height="173.04" width="195.53520000000003" id="textblock"><g><svg viewBox="0 0 195.53520000000003 173.04" height="173.04" width="195.53520000000003"><g transform="matrix(1,0,0,1,0,0)"><svg width="195.53520000000003" viewBox="1.6500000953674316 -34.29999923706055 39.54999923706055 35" height="173.04" data-palette-color="#ffffff"><g class="undefined-text-0" data-fill-palette-color="primary" id="text-0"><path d="M37.5-8.15L41.2-2.9Q39.75-1.3 37.98-0.3 36.2 0.7 33.55 0.7L33.55 0.7Q28.75 0.7 25.58-2.63 22.4-5.95 20.8-13L20.8-13 20.65-13.65 15.35-13.65 15.35-6.3 20.7-6.3 20.7 0 1.65 0 1.65-6.35 7.25-6.35 7.25-27.95 1.65-27.95 1.65-34.3 22.2-34.3Q28.4-34.3 32.15-31.63 35.9-28.95 35.9-24.05L35.9-24.05Q35.9-20.15 33.77-17.63 31.65-15.1 27.75-14.15L27.75-14.15 28-13.4Q29.2-9.65 30.73-8.18 32.25-6.7 34.05-6.7L34.05-6.7Q35.15-6.7 35.95-7.08 36.75-7.45 37.5-8.15L37.5-8.15ZM15.35-27.95L15.35-19.6 22.45-19.6Q24.55-19.6 26.23-20.65 27.9-21.7 27.9-24.05L27.9-24.05Q27.9-26.15 26.28-27.05 24.65-27.95 22.45-27.95L22.45-27.95 15.35-27.95Z" fill="#ffffff" data-fill-palette-color="primary"></path></g></svg></g></svg></g></svg></g></svg></g><g transform="matrix(1,0,0,1,0,16.964393153756873)"><svg viewBox="0 0 120.84075360000001 139.97641369248623" height="139.97641369248623" width="120.84075360000001"><g><svg xmlns="http://www.w3.org/2000/svg" xmlns:xlink="http://www.w3.org/1999/xlink" version="1.1" x="0" y="0" viewBox="9.63800048828125 3.246999979019165 80.7239990234375 93.50699615478516" enable-background="new 0 0 100 100" xml:space="preserve" height="139.97641369248623" width="120.84075360000001" class="icon-icon-0" data-fill-palette-color="accent" id="icon-0"><g fill="#7fdbff" data-fill-palette-color="accent"><g fill="#7fdbff" data-fill-palette-color="accent"><polygon points="36.703,11.011 9.638,26.636 9.638,38.757 36.703,23.131 63.767,38.757 63.767,26.636   " fill="#7fdbff" data-fill-palette-color="accent"></polygon></g><g fill="#7fdbff" data-fill-palette-color="accent"><polygon points="63.298,89.092 36.233,73.467 36.233,61.348 63.298,76.973 90.362,61.348 90.362,73.467   " fill="#7fdbff" data-fill-palette-color="accent"></polygon></g><g fill="#7fdbff" data-fill-palette-color="accent"><polygon points="9.638,42.012 36.703,26.386 47.198,32.446 20.134,48.072 20.134,79.324 9.638,73.264   " fill="#7fdbff" data-fill-palette-color="accent"></polygon></g><g fill="#7fdbff" data-fill-palette-color="accent"><polygon points="77.083,18.872 50.018,3.247 39.522,9.307 66.586,24.932 66.586,56.184 77.083,50.124   " fill="#7fdbff" data-fill-palette-color="accent"></polygon></g><g fill="#7fdbff" data-fill-palette-color="accent"><polygon points="23.01,81.127 23.011,49.876 33.507,43.816 33.507,75.068 60.571,90.693 50.075,96.754   " fill="#7fdbff" data-fill-palette-color="accent"></polygon></g><g fill="#7fdbff" data-fill-palette-color="accent"><polygon points="90.362,58.092 90.362,26.84 79.866,20.78 79.866,52.031 52.802,67.658 63.298,73.719   " fill="#7fdbff" data-fill-palette-color="accent"></polygon></g></g></svg></g></svg></g></svg></g></svg></g><g><path xmlns="http://www.w3.org/2000/svg" d="M0 247.2v-247.2h395.52v247.2zM383.584 235.264v-223.328h-371.648v223.328z" fill="#ffffff" fill-rule="nonzero" stroke="none" stroke-width="1" stroke-linecap="butt" stroke-linejoin="miter" stroke-miterlimit="10" stroke-dasharray="" stroke-dashoffset="0" font-family="none" font-weight="none" font-size="none" text-anchor="none" style="mix-blend-mode: normal" data-fill-palette-color="tertiary"></path></g></svg></g><defs></defs></svg><rect width="395.52" height="247.2" fill="none" stroke="none" visibility="hidden"></rect></g></svg></g></svg>